<svg width="20" height="17" viewBox="0 0 20 17" fill="none" xmlns="http://www.w3.org/2000/svg">
<path opacity="0.6" d="M0.124103 1.34505C0.124103 0.608673 0.721057 0.0117188 1.45744 0.0117188H18.6667C19.403 0.0117188 20 0.608673 20 1.34505C20 2.08143 19.403 2.67839 18.6667 2.67839H1.45744C0.721056 2.67839 0.124103 2.08143 0.124103 1.34505ZM0 8.01172C0 7.27534 0.596954 6.67839 1.33333 6.67839H18.6667C19.403 6.67839 20 7.27534 20 8.01172C20 8.7481 19.403 9.34505 18.6667 9.34505H1.33333C0.596955 9.34505 0 8.7481 0 8.01172ZM0 14.6784C0 13.942 0.596953 13.3451 1.33333 13.3451H18.6667C19.403 13.3451 20 13.942 20 14.6784C20 15.4148 19.403 16.0117 18.6667 16.0117H1.33333C0.596953 16.0117 0 15.4148 0 14.6784Z" fill="#737373"/>
</svg>
